Coordinates
version=1
nRows=22
nColumns=24
inDegrees=yes

Units are S.I. units (second, meters, Newtons, ...)
Angles are in degrees.

endheader
time	pelvis_tilt	pelvis_list	pelvis_rotation	pelvis_tx	pelvis_ty	pelvis_tz	hip_flexion_r	hip_adduction_r	hip_rotation_r	knee_angle_r	ankle_angle_r	subtalar_angle_r	mtp_angle_r	hip_flexion_l	hip_adduction_l	hip_rotation_l	knee_angle_l	ankle_angle_l	subtalar_angle_l	mtp_angle_l	lumbar_extension	lumbar_bending	lumbar_rotation
      4.58000000	    -19.28726496	     12.37977721	     -7.16584831	     -0.87228104	     -0.04011566	     -0.25553564	     20.86387831	     -9.57779446	      4.04003313	    -59.82746282	    -42.18048599	     -9.20794436	     21.16217745	     41.96774061	     14.16254558	      2.37523894	    -24.93560996	     16.01861421	      8.46473138	    -70.84140727	     15.51823794	     -9.97645885	      9.20248972
      4.58500000	    -19.28370731	     12.32910373	     -7.18652228	     -0.86511939	     -0.03874542	     -0.25548054	     22.08444336	     -9.19889039	      4.32961135	    -61.32702921	    -40.03463904	    -11.01141196	     18.13002949	     41.17943489	     14.13776180	      2.18073575	    -24.55340396	     16.68225092	      9.07596316	    -71.02017138	     15.54458215	     -9.85730087	      8.99708019
      4.59000000	    -19.17496458	     12.33764384	     -7.31781576	     -0.85792375	     -0.03715271	     -0.25533868	     23.19185580	     -8.84753486	      4.75092152	    -62.64310961	    -38.07796840	    -12.83627762	     15.70164781	     40.21179272	     14.15435908	      2.07721807	    -24.00586742	     17.18993875	      9.42812004	    -71.16447607	     15.49341995	     -9.77758188	      8.95973463
      4.59500000	    -19.09499049	     12.31612661	     -7.43687601	     -0.85077714	     -0.03558647	     -0.25517836	     24.30943881	     -8.44170039	      5.16529020	    -63.86414833	    -36.09368839	    -14.48527571	     13.02655521	     39.27074531	     14.14466983	      1.98774148	    -23.45522120	     17.65954122	      9.77587925	    -71.27333963	     15.46271401	     -9.66889940	      8.90583693
      4.60000000	    -18.98062419	     12.28070709	     -7.55707329	     -0.84362398	     -0.03395817	     -0.25499164	     25.36420728	     -8.01836120	      5.56153276	    -64.97505631	    -34.12234052	    -15.97106335	     10.08807279	     38.26530445	     14.13919607	      1.95833136	    -22.85689757	     18.07168730	     10.06133368	    -71.36209553	     15.39483935	     -9.55547409	      8.84943256
      4.60500000	    -18.86401217	     12.20977742	     -7.69822311	     -0.83647499	     -0.03229483	     -0.25472550	     26.38813680	     -7.53052324	      5.97356766	    -65.96172487	    -32.26991921	    -17.30408511	      7.14665848	     37.22720185	     14.09305443	      1.98817079	    -22.21626217	     18.45714844	     10.31332088	    -71.41951139	     15.32630828	     -9.40866562	      8.82209714
      4.61000000	    -18.73409090	     12.15778359	     -7.78598974	     -0.82931004	     -0.03065070	     -0.25455447	     27.37613943	     -7.11185274	      6.29782220	    -66.87188367	    -30.36815961	    -18.42038618	      3.95860161	     36.16241326	     14.11454525	      2.07787046	    -21.53929574	     18.73459164	     10.45737602	    -71.47698976	     15.24106312	     -9.29222245	      8.72215218
      4.61500000	    -18.59324840	     12.07176922	     -7.85512981	     -0.82216004	     -0.02900234	     -0.25437135	     28.31148917	     -6.68323416	      6.54748196	    -67.65341847	    -28.59821781	    -19.48274901	      0.99653676	     35.08193436	     14.11435050	      2.14854202	    -20.86151327	     18.97624452	     10.59433323	    -71.50405168	     15.12939277	     -9.15844891	      8.61002058
      4.62000000	    -18.46873758	     11.94135477	     -7.94175020	     -0.81507820	     -0.02737744	     -0.25420385	     29.24777929	     -6.19606665	      6.81300300	    -68.34541453	    -26.85221837	    -20.25927302	     -1.93943109	     33.98808973	     14.08700116	      2.42266290	    -20.13884183	     19.16747388	     10.54311413	    -71.51254556	     15.02393719	     -8.96863126	      8.53175821
      4.62500000	    -18.32289340	     11.77462309	     -7.99903072	     -0.80799437	     -0.02574319	     -0.25400270	     30.11246388	     -5.70672645	      6.99034722	    -68.90358981	    -25.28451269	    -21.03811651	     -4.50853141	     32.86593384	     14.03253889	      2.67168152	    -19.41917399	     19.34244668	     10.54797724	    -71.48547463	     14.88598139	     -8.76544718	      8.39782991
      4.63000000	    -18.24887197	     11.66659215	     -8.10695068	     -0.80092183	     -0.02420102	     -0.25377065	     31.04885778	     -5.24741180	      7.29517234	    -69.30596862	    -24.20729736	    -21.85428387	     -5.13210618	     31.80159083	     13.99656934	      2.89107603	    -18.61078067	     19.38785611	     10.42454857	    -71.47622996	     14.85128124	     -8.59196717	      8.33553863
      4.63500000	    -18.06808484	     11.37458568	     -8.06690660	     -0.79379614	     -0.02249831	     -0.25375328	     31.73560832	     -4.74783433	      7.31305122	    -69.56647008	    -22.84051387	    -22.31305217	     -6.26227478	     30.56400161	     13.91493104	      3.50450322	    -17.80872817	     19.42282741	     10.13975166	    -71.44322903	     14.64158399	     -8.29062970	      8.04784816
      4.64000000	    -18.07619886	     11.06441425	     -8.01432221	     -0.78681633	     -0.02112064	     -0.25352407	     32.66501219	     -4.18949275	      7.17032573	    -69.87861480	    -20.89779255	    -22.55370946	    -10.05072526	     29.61943988	     13.72398367	      3.82917080	    -17.16087078	     19.52283381	     10.12419532	    -71.18846472	     14.62911256	     -7.97054104	      7.83697588
      4.64500000	    -17.96212458	     10.79635085	     -8.05133738	     -0.77987150	     -0.01962049	     -0.25331484	     33.41745171	     -3.67495453	      7.25652545	    -69.94342591	    -19.77401488	    -22.90883943	     -9.92647856	     28.50318824	     13.57651323	      4.25770908	    -16.38725531	     19.54323864	      9.87544723	    -71.19772432	     14.49281974	     -7.68048408	      7.66824962
      4.65000000	    -17.91567535	     10.43265108	     -7.96945132	     -0.77295307	     -0.01819274	     -0.25324262	     34.16286357	     -3.14884052	      7.15349823	    -69.87199739	    -18.62038943	    -23.16364232	     -9.72265244	     27.45786061	     13.37785412	      4.85074885	    -15.65947420	     19.54381284	      9.58181802	    -71.17915021	     14.39280720	     -7.31584584	      7.36658289
      4.65500000	    -17.87095887	     10.04879711	     -7.88155004	     -0.76608136	     -0.01679987	     -0.25313550	     34.87731133	     -2.62327792	      7.01553207	    -69.69079411	    -17.44652795	    -23.30218789	     -9.35009112	     26.41904803	     13.14841203	      5.48384893	    -14.93563966	     19.50751453	      9.25533792	    -71.13908411	     14.29095717	     -6.94355250	      7.05972709
      4.66000000	    -17.82605309	      9.68197572	     -7.81001553	     -0.75925167	     -0.01546879	     -0.25304478	     35.57534254	     -2.12980734	      6.88673581	    -69.39747481	    -16.38662614	    -23.41361053	     -8.52950756	     25.34949033	     12.93657606	      6.33828218	    -14.13852441	     19.37309363	      8.66564202	    -71.01935205	     14.18969996	     -6.58216337	      6.80033037
      4.66500000	    -17.79626321	      9.26374906	     -7.68442482	     -0.75246708	     -0.01413534	     -0.25304269	     36.21807537	     -1.63783486	      6.71819472	    -68.93379338	    -15.48725175	    -23.44352711	     -6.72809958	     24.30929812	     12.68253023	      7.22981507	    -13.36924061	     19.13565542	      8.04078721	    -70.79239108	     14.08200007	     -6.18130256	      6.47071534
      4.67000000	    -17.79159479	      8.83723067	     -7.53608981	     -0.74575311	     -0.01290976	     -0.25308976	     36.84944368	     -1.16914949	      6.56836141	    -68.31790251	    -14.90961868	    -23.51506236	     -3.55625471	     23.34061413	     12.40533199	      8.06063775	    -12.67484620	     18.95120969	      7.52431351	    -70.46786258	     13.99438644	     -5.77407929	      6.10230471
      4.67500000	    -17.85829077	      8.38733377	     -7.34391093	     -0.73915046	     -0.01182415	     -0.25310218	     37.52549158	     -0.69661419	      6.36719197	    -67.58575797	    -14.44716789	    -23.62829161	     -0.28847174	     22.53529907	     12.07344476	      8.67148178	    -12.12860933	     18.88693690	      7.30493553	    -70.22816245	     13.96509803	     -5.35780053	      5.68356796
      4.68000000	    -17.96832306	      7.90718205	     -7.05464386	     -0.73258864	     -0.01087815	     -0.25303198	     38.23455829	     -0.25057565	      5.95860079	    -66.86990111	    -13.49119906	    -23.44388197	      0.39376304	     21.86134938	     11.69710318	      9.05904396	    -11.74816420	     19.03133991	      7.49937739	    -70.18253747	     13.97081798	     -4.95766469	      5.17684183
      4.68500000	    -17.95573597	      7.53557633	     -6.88301113	     -0.72599039	     -0.00984460	     -0.25311623	     38.79738970	      0.08838311	      5.78046319	    -65.98316961	    -12.93731369	    -23.29629815	      3.14475390	     20.90672434	     11.45534047	     10.11390476	    -11.04262604	     18.72420605	      6.70321802	    -70.07779015	     13.87336465	     -4.62234170	      4.84338861
